<svg version="1.1" xmlns="http://www.w3.org/2000/svg" xmlns:xlink="http://www.w3.org/1999/xlink" xml:space="preserve" xmlns:serif="http://www.serif.com/" style="fill-rule:evenodd;clip-rule:evenodd;stroke-linejoin:round;stroke-miterlimit:2;">
    <g transform="matrix(1,0,0,1,-1056,-76.1904)">
        <g id="transparent" transform="matrix(1.84894,0,0,2.07303,348.123,-194.018)">
            <rect x="307.728" y="93.591" width="443.642" height="522.552" style="fill:none;"/>
            <g transform="matrix(0.540851,0,0,0.482386,259.123,142.882)">
                <g id="Layer1">
                    <g>
                        <g>
                            <g transform="matrix(2.73795,0,0,1.94189,-1048.49,-243.141)">
                                <ellipse cx="565.565" cy="344.043" rx="99.06" ry="232.219" style="fill:url(#_Radial1);"/>
                            </g>
                            <g>
                                <g>
                                    <g opacity="0.9">
                                        <g transform="matrix(1.14912,0,0,1.14912,87.8896,-46.5069)">
                                            <path d="M426.868,325.287C429.138,320.33 433.015,315.611 436.788,316.154L436.788,111.824L432.143,111.824L426.868,325.287Z" style="fill:url(#_Linear2);"/>
                                        </g>
                                        <g transform="matrix(1.14912,0,0,1.14912,87.8896,-46.5069)">
                                            <path d="M426.868,325.287C429.138,320.33 433.015,315.611 436.788,316.154L436.788,111.824L432.143,111.824L426.868,325.287Z" style="fill:url(#_Linear3);"/>
                                        </g>
                                    </g>
                                    <g transform="matrix(-1.10064,0,0,1,1043.19,2.84217e-14)">
                                        <path d="M411.972,316.154C411.972,316.154 408.02,319.742 411.972,325.287C414.903,329.401 426.708,344.098 426.708,344.098L428.898,338.425L421.892,325.287C417.649,316.71 412.979,315.529 411.972,316.154Z" style="fill:url(#_Linear4);"/>
                                    </g>
                                </g>
                            </g>
                            <g transform="matrix(-1,0,0,1,1000.37,0)">
                                <g>
                                    <g opacity="0.9">
                                        <g transform="matrix(1.14912,0,0,1.14912,87.8896,-46.5069)">
                                            <path d="M426.868,325.287C429.138,320.33 433.015,315.611 436.788,316.154L436.788,111.824L432.143,111.824L426.868,325.287Z" style="fill:url(#_Linear5);"/>
                                        </g>
                                        <g transform="matrix(1.14912,0,0,1.14912,87.8896,-46.5069)">
                                            <path d="M426.868,325.287C429.138,320.33 433.015,315.611 436.788,316.154L436.788,111.824L432.143,111.824L426.868,325.287Z" style="fill:url(#_Linear6);"/>
                                        </g>
                                    </g>
                                    <g transform="matrix(-1.10064,0,0,1,1043.19,2.84217e-14)">
                                        <path d="M411.972,316.154C411.972,316.154 408.02,319.742 411.972,325.287C414.903,329.401 426.708,344.098 426.708,344.098L428.898,338.425L421.892,325.287C417.649,316.71 412.979,315.529 411.972,316.154Z" style="fill:url(#_Linear7);"/>
                                    </g>
                                </g>
                            </g>
                            <g transform="matrix(-0.683545,0,0,0.909259,851.493,12.5076)">
                                <path d="M514.221,137.838L550.753,315.947L514.221,376.124L514.221,137.838Z" style="fill:url(#_Linear8);"/>
                            </g>
                            <g transform="matrix(1,0,0,1,-14.5884,2.84217e-14)">
                                <path d="M514.588,137.838L460.239,295.011L460.239,361.112L489.617,299.785L514.588,137.838Z" style="fill:url(#_Linear9);"/>
                            </g>
                            <g transform="matrix(1,0,0,1,-14.5884,2.84217e-14)">
                                <path d="M460.239,295.011L365.862,539.584L460.239,361.112L460.239,295.011Z" style="fill:url(#_Radial10);"/>
                            </g>
                            <g transform="matrix(1,0,0,1,-14.5884,2.84217e-14)">
                                <path d="M413.05,549.499L365.862,539.584L427.789,422.477L413.05,549.499Z" style="fill:url(#_Linear11);"/>
                            </g>
                            <g transform="matrix(1,0,0,1,-14.5884,2.84217e-14)">
                                <path d="M471.623,429.049L460.239,361.112L427.789,422.477L413.05,549.499L471.623,429.049Z" style="fill:url(#_Radial12);"/>
                                <path d="M471.623,429.049L460.239,361.112L427.789,422.477L413.05,549.499L471.623,429.049Z" style="fill:url(#_Radial13);"/>
                            </g>
                        </g>
                        <g transform="matrix(1,0,0,1,-14.5884,2.84217e-14)">
                            <path d="M489.617,299.785L514.588,354.502L471.623,429.049L460.239,361.112L489.617,299.785Z" style="fill:url(#_Linear14);"/>
                        </g>
                        <g transform="matrix(1,0,0,1,-14.5884,2.84217e-14)">
                            <path d="M365.862,539.584L402.072,618.343L413.05,549.499L365.862,539.584Z" style="fill:url(#_Linear15);"/>
                        </g>
                        <g transform="matrix(1,0,0,1,-14.5884,2.84217e-14)">
                            <path d="M376.665,610.064L402.072,618.343L365.862,539.584L376.665,610.064Z" style="fill:url(#_Linear16);"/>
                        </g>
                        <g transform="matrix(1,0,0,1,-14.5884,2.84217e-14)">
                            <path d="M376.665,610.064L514.588,769.722L402.072,618.343L376.665,610.064Z" style="fill:url(#_Linear17);"/>
                        </g>
                        <g transform="matrix(1,0,0,1,-14.5884,2.84217e-14)">
                            <path d="M413.05,549.499L455.186,624.301L402.072,618.343L413.05,549.499Z" style="fill:rgb(33,12,28);"/>
                        </g>
                        <g transform="matrix(1,0,0,1,-14.5884,2.84217e-14)">
                            <path d="M514.588,769.722L455.186,624.301L402.072,618.343L514.588,769.722Z" style="fill:rgb(33,10,25);"/>
                        </g>
                        <g transform="matrix(1,0,0,1,-14.5884,2.84217e-14)">
                            <path d="M413.05,549.499L455.186,624.301L458.855,455.306L413.05,549.499Z" style="fill:url(#_Radial18);"/>
                        </g>
                        <g transform="matrix(1,0,0,1,-14.5884,2.84217e-14)">
                            <path d="M471.623,429.049L514.588,510.608L455.186,624.301L458.855,455.306L471.623,429.049Z" style="fill:url(#_Radial19);"/>
                        </g>
                        <g transform="matrix(1,0,0,1,-14.5884,2.84217e-14)">
                            <path d="M471.623,429.049L514.588,510.608L514.588,354.502L471.623,429.049Z" style="fill:url(#_Radial20);"/>
                        </g>
                        <g transform="matrix(1,0,0,1,-14.5884,2.84217e-14)">
                            <path d="M514.588,510.608L514.588,624.301L455.186,624.301L514.588,510.608Z" style="fill:url(#_Radial21);"/>
                        </g>
                        <g transform="matrix(-1,0,0,1,1014.59,2.84217e-14)">
                            <path d="M514.588,510.608L514.588,624.301L455.186,624.301L514.588,510.608Z" style="fill:url(#_Radial22);"/>
                        </g>
                        <g transform="matrix(1,0,0,1,-14.5884,2.84217e-14)">
                            <path d="M455.186,624.301L514.588,624.301L514.588,769.722L455.186,624.301Z" style="fill:url(#_Linear23);"/>
                        </g>
                        <g transform="matrix(0.683545,0,0,0.909259,148.507,12.5076)">
                            <path d="M514.221,137.838L550.753,315.947L514.221,376.124L514.221,137.838Z" style="fill:rgb(251,248,203);"/>
                        </g>
                        <g transform="matrix(-1,0,0,1,1014.59,2.84217e-14)">
                            <path d="M514.588,137.838L460.239,295.011L460.239,361.112L489.617,299.785L514.588,137.838Z" style="fill:rgb(250,251,248);"/>
                        </g>
                        <g transform="matrix(-1,0,0,1,1014.59,2.84217e-14)">
                            <path d="M460.239,295.011L365.862,539.584L460.239,361.112L460.239,295.011Z" style="fill:url(#_Linear24);"/>
                        </g>
                        <g transform="matrix(-1,0,0,1,1014.59,2.84217e-14)">
                            <path d="M413.05,549.499L365.862,539.584L427.789,422.477L413.05,549.499Z" style="fill:url(#_Linear25);"/>
                        </g>
                        <g transform="matrix(-1,0,0,1,1014.59,2.84217e-14)">
                            <path d="M471.623,429.049L460.239,361.112L427.789,422.477L413.05,549.499L471.623,429.049Z" style="fill:rgb(254,216,99);"/>
                        </g>
                        <g transform="matrix(-1,0,0,1,1014.59,2.84217e-14)">
                            <path d="M489.617,299.785L514.588,354.502L471.623,429.049L460.239,361.112L489.617,299.785Z" style="fill:url(#_Linear26);"/>
                        </g>
                        <g transform="matrix(-1,0,0,1,1014.59,2.84217e-14)">
                            <path d="M365.862,539.584L402.072,618.343L413.05,549.499L365.862,539.584Z" style="fill:url(#_Radial27);"/>
                        </g>
                        <g transform="matrix(-1,0,0,1,1014.59,2.84217e-14)">
                            <path d="M376.665,610.064L402.072,618.343L365.862,539.584L376.665,610.064Z" style="fill:url(#_Linear28);"/>
                        </g>
                        <g transform="matrix(-1,0,0,1,1014.59,2.84217e-14)">
                            <path d="M376.665,610.064L514.588,769.722L402.072,618.343L376.665,610.064Z" style="fill:url(#_Linear29);"/>
                        </g>
                        <g transform="matrix(-1,0,0,1,1014.59,2.84217e-14)">
                            <path d="M413.05,549.499L455.186,624.301L402.072,618.343L413.05,549.499Z" style="fill:url(#_Linear30);"/>
                        </g>
                        <g transform="matrix(-1,0,0,1,1014.59,2.84217e-14)">
                            <path d="M514.588,769.722L455.186,624.301L402.072,618.343L514.588,769.722Z" style="fill:url(#_Linear31);"/>
                        </g>
                        <g transform="matrix(-1,0,0,1,1014.59,2.84217e-14)">
                            <path d="M413.05,549.499L455.186,624.301L458.855,455.306L413.05,549.499Z" style="fill:url(#_Radial32);"/>
                        </g>
                        <g transform="matrix(1,0,0,1,-14.5884,2.84217e-14)">
                            <path d="M557.554,429.049L514.588,510.608L573.99,624.301L570.322,455.306L557.554,429.049Z" style="fill:url(#_Linear33);"/>
                        </g>
                        <g transform="matrix(-1,0,0,1,1014.59,2.84217e-14)">
                            <path d="M471.623,429.049L514.588,510.608L514.588,354.502L471.623,429.049Z" style="fill:url(#_Radial34);"/>
                        </g>
                        <g transform="matrix(-1,0,0,1,1014.59,2.84217e-14)">
                            <path d="M455.186,624.301L514.588,624.301L514.588,769.722L455.186,624.301Z" style="fill:url(#_Linear35);"/>
                        </g>
                    </g>
                </g>
            </g>
        </g>
    </g>
    <defs>
        <radialGradient id="_Radial1" cx="0" cy="0" r="1" gradientUnits="userSpaceOnUse" gradientTransform="matrix(97.0259,0,0,227.45,565.565,339.274)"><stop offset="0" style="stop-color:rgb(228,119,67);stop-opacity:1"/><stop offset="1" style="stop-color:rgb(113,61,70);stop-opacity:0"/></radialGradient>
        <linearGradient id="_Linear2" x1="0" y1="0" x2="1" y2="0" gradientUnits="userSpaceOnUse" gradientTransform="matrix(-57.9327,207.634,-4147.91,-1157.32,440.491,117.653)"><stop offset="0" style="stop-color:rgb(102,55,51);stop-opacity:0"/><stop offset="0.35" style="stop-color:rgb(125,54,46);stop-opacity:0.22"/><stop offset="0.65" style="stop-color:rgb(205,49,29);stop-opacity:1"/><stop offset="0.83" style="stop-color:rgb(242,155,19);stop-opacity:1"/><stop offset="1" style="stop-color:rgb(255,192,16);stop-opacity:1"/></linearGradient>
        <linearGradient id="_Linear3" x1="0" y1="0" x2="1" y2="0" gradientUnits="userSpaceOnUse" gradientTransform="matrix(-57.9327,207.634,-4147.91,-1157.32,440.491,117.653)"><stop offset="0" style="stop-color:rgb(102,55,51);stop-opacity:0"/><stop offset="0.35" style="stop-color:rgb(125,54,46);stop-opacity:0.22"/><stop offset="0.65" style="stop-color:rgb(205,49,29);stop-opacity:1"/><stop offset="0.83" style="stop-color:rgb(242,155,19);stop-opacity:1"/><stop offset="1" style="stop-color:rgb(255,192,16);stop-opacity:1"/></linearGradient>
        <linearGradient id="_Linear4" x1="0" y1="0" x2="1" y2="0" gradientUnits="userSpaceOnUse" gradientTransform="matrix(18.6824,0,0,26.6087,410.215,330.794)"><stop offset="0" style="stop-color:rgb(63,26,33);stop-opacity:1"/><stop offset="1" style="stop-color:rgb(113,61,70);stop-opacity:1"/></linearGradient>
        <linearGradient id="_Linear5" x1="0" y1="0" x2="1" y2="0" gradientUnits="userSpaceOnUse" gradientTransform="matrix(-57.9327,207.634,-4147.91,-1157.32,440.491,117.653)"><stop offset="0" style="stop-color:rgb(102,55,51);stop-opacity:0"/><stop offset="0.35" style="stop-color:rgb(125,54,46);stop-opacity:0.22"/><stop offset="0.65" style="stop-color:rgb(205,49,29);stop-opacity:1"/><stop offset="0.83" style="stop-color:rgb(242,155,19);stop-opacity:1"/><stop offset="1" style="stop-color:rgb(255,192,16);stop-opacity:1"/></linearGradient>
        <linearGradient id="_Linear6" x1="0" y1="0" x2="1" y2="0" gradientUnits="userSpaceOnUse" gradientTransform="matrix(-57.9327,207.634,-4147.91,-1157.32,440.491,117.653)"><stop offset="0" style="stop-color:rgb(102,55,51);stop-opacity:0"/><stop offset="0.35" style="stop-color:rgb(125,54,46);stop-opacity:0.22"/><stop offset="0.65" style="stop-color:rgb(205,49,29);stop-opacity:1"/><stop offset="0.83" style="stop-color:rgb(242,155,19);stop-opacity:1"/><stop offset="1" style="stop-color:rgb(255,192,16);stop-opacity:1"/></linearGradient>
        <linearGradient id="_Linear7" x1="0" y1="0" x2="1" y2="0" gradientUnits="userSpaceOnUse" gradientTransform="matrix(18.6824,0,0,26.6087,410.215,330.794)"><stop offset="0" style="stop-color:rgb(63,26,33);stop-opacity:1"/><stop offset="1" style="stop-color:rgb(113,61,70);stop-opacity:1"/></linearGradient>
        <linearGradient id="_Linear8" x1="0" y1="0" x2="1" y2="0" gradientUnits="userSpaceOnUse" gradientTransform="matrix(27.736,173.163,-1998.57,180.912,507.827,169.01)"><stop offset="0" style="stop-color:rgb(255,212,94);stop-opacity:1"/><stop offset="1" style="stop-color:rgb(253,191,78);stop-opacity:1"/></linearGradient>
        <linearGradient id="_Linear9" x1="0" y1="0" x2="1" y2="0" gradientUnits="userSpaceOnUse" gradientTransform="matrix(54.3495,0,0,223.274,460.239,249.475)"><stop offset="0" style="stop-color:rgb(255,168,59);stop-opacity:1"/><stop offset="1" style="stop-color:rgb(251,234,86);stop-opacity:1"/></linearGradient>
        <radialGradient id="_Radial10" cx="0" cy="0" r="1" gradientUnits="userSpaceOnUse" gradientTransform="matrix(59.3105,0,0,59.3105,442.337,394.966)"><stop offset="0" style="stop-color:rgb(251,234,171);stop-opacity:1"/><stop offset="0.51" style="stop-color:rgb(252,239,187);stop-opacity:1"/><stop offset="1" style="stop-color:rgb(254,253,237);stop-opacity:1"/></radialGradient>
        <linearGradient id="_Linear11" x1="0" y1="0" x2="1" y2="0" gradientUnits="userSpaceOnUse" gradientTransform="matrix(22.5225,-107.65,220.808,46.1972,396.825,546.09)"><stop offset="0" style="stop-color:rgb(158,37,37);stop-opacity:1"/><stop offset="0.46" style="stop-color:rgb(146,24,31);stop-opacity:1"/><stop offset="1" style="stop-color:rgb(216,69,32);stop-opacity:1"/></linearGradient>
        <radialGradient id="_Radial12" cx="0" cy="0" r="1" gradientUnits="userSpaceOnUse" gradientTransform="matrix(-24.7738,70.7944,-227.696,-79.6799,442.337,439.813)"><stop offset="0" style="stop-color:rgb(214,60,37);stop-opacity:1"/><stop offset="1" style="stop-color:rgb(225,70,56);stop-opacity:1"/></radialGradient>
        <radialGradient id="_Radial13" cx="0" cy="0" r="1" gradientUnits="userSpaceOnUse" gradientTransform="matrix(-24.7738,70.7944,-227.696,-79.6799,442.337,439.813)"><stop offset="0" style="stop-color:rgb(214,60,37);stop-opacity:1"/><stop offset="1" style="stop-color:rgb(225,70,56);stop-opacity:1"/></radialGradient>
        <linearGradient id="_Linear14" x1="0" y1="0" x2="1" y2="0" gradientUnits="userSpaceOnUse" gradientTransform="matrix(54.3495,0,0,129.264,460.239,364.417)"><stop offset="0" style="stop-color:rgb(242,137,51);stop-opacity:1"/><stop offset="0.2" style="stop-color:rgb(240,133,46);stop-opacity:1"/><stop offset="0.46" style="stop-color:rgb(236,123,33);stop-opacity:1"/><stop offset="0.65" style="stop-color:rgb(251,141,51);stop-opacity:1"/><stop offset="1" style="stop-color:rgb(254,144,54);stop-opacity:1"/></linearGradient>
        <linearGradient id="_Linear15" x1="0" y1="0" x2="1" y2="0" gradientUnits="userSpaceOnUse" gradientTransform="matrix(32.0458,-17.2579,28.8037,53.485,370.027,566.757)"><stop offset="0" style="stop-color:rgb(150,34,54);stop-opacity:1"/><stop offset="1" style="stop-color:rgb(114,35,43);stop-opacity:1"/></linearGradient>
        <linearGradient id="_Linear16" x1="0" y1="0" x2="1" y2="0" gradientUnits="userSpaceOnUse" gradientTransform="matrix(-30.1748,-39.3793,85.6503,-65.6305,402.072,618.343)"><stop offset="0" style="stop-color:rgb(113,61,70);stop-opacity:1"/><stop offset="0.44" style="stop-color:rgb(87,39,48);stop-opacity:1"/><stop offset="1" style="stop-color:rgb(81,34,43);stop-opacity:1"/></linearGradient>
        <linearGradient id="_Linear17" x1="0" y1="0" x2="1" y2="0" gradientUnits="userSpaceOnUse" gradientTransform="matrix(20.6564,-16.5066,19.1078,23.9116,415.824,681.141)"><stop offset="0" style="stop-color:rgb(69,19,35);stop-opacity:1"/><stop offset="0.65" style="stop-color:rgb(77,19,33);stop-opacity:1"/><stop offset="1" style="stop-color:rgb(127,19,19);stop-opacity:1"/></linearGradient>
        <radialGradient id="_Radial18" cx="0" cy="0" r="1" gradientUnits="userSpaceOnUse" gradientTransform="matrix(27.3978,-10.0413,37.0473,101.084,427.789,575.663)"><stop offset="0" style="stop-color:rgb(196,13,43);stop-opacity:1"/><stop offset="1" style="stop-color:rgb(154,11,28);stop-opacity:1"/></radialGradient>
        <radialGradient id="_Radial19" cx="0" cy="0" r="1" gradientUnits="userSpaceOnUse" gradientTransform="matrix(54.3495,0.326468,-1.07309,178.644,460.239,614.63)"><stop offset="0" style="stop-color:rgb(249,20,61);stop-opacity:1"/><stop offset="0.37" style="stop-color:rgb(193,12,33);stop-opacity:1"/><stop offset="1" style="stop-color:rgb(182,11,28);stop-opacity:1"/></radialGradient>
        <radialGradient id="_Radial20" cx="0" cy="0" r="1" gradientUnits="userSpaceOnUse" gradientTransform="matrix(-46.4262,12.2602,-44.5447,-168.679,471.623,432.555)"><stop offset="0" style="stop-color:rgb(253,198,59);stop-opacity:1"/><stop offset="0.52" style="stop-color:rgb(250,148,46);stop-opacity:1"/><stop offset="1" style="stop-color:rgb(249,130,41);stop-opacity:1"/></radialGradient>
        <radialGradient id="_Radial21" cx="0" cy="0" r="1" gradientUnits="userSpaceOnUse" gradientTransform="matrix(4.17222e-15,68.1375,-130.413,7.98547e-15,500,577.496)"><stop offset="0" style="stop-color:rgb(89,1,26);stop-opacity:1"/><stop offset="0.56" style="stop-color:rgb(101,4,24);stop-opacity:1"/><stop offset="1" style="stop-color:rgb(146,14,14);stop-opacity:1"/></radialGradient>
        <radialGradient id="_Radial22" cx="0" cy="0" r="1" gradientUnits="userSpaceOnUse" gradientTransform="matrix(29.701,15.5181,-29.701,56.8466,484.887,589.947)"><stop offset="0" style="stop-color:rgb(89,1,26);stop-opacity:1"/><stop offset="0.56" style="stop-color:rgb(100,4,24);stop-opacity:1"/><stop offset="1" style="stop-color:rgb(146,14,14);stop-opacity:1"/></radialGradient>
        <linearGradient id="_Linear23" x1="0" y1="0" x2="1" y2="0" gradientUnits="userSpaceOnUse" gradientTransform="matrix(56.258,21.4058,-52.4033,137.725,458.33,631.998)"><stop offset="0" style="stop-color:rgb(62,3,27);stop-opacity:1"/><stop offset="1" style="stop-color:rgb(45,5,28);stop-opacity:1"/></linearGradient>
        <linearGradient id="_Linear24" x1="0" y1="0" x2="1" y2="0" gradientUnits="userSpaceOnUse" gradientTransform="matrix(-51.8746,94.6197,94.6197,51.8746,455.186,347.915)"><stop offset="0" style="stop-color:rgb(250,245,193);stop-opacity:1"/><stop offset="1" style="stop-color:rgb(252,242,115);stop-opacity:1"/></linearGradient>
        <linearGradient id="_Linear25" x1="0" y1="0" x2="1" y2="0" gradientUnits="userSpaceOnUse" gradientTransform="matrix(-38.3325,115.493,-236.894,-78.6261,427.789,429.049)"><stop offset="0" style="stop-color:rgb(254,189,79);stop-opacity:1"/><stop offset="0.26" style="stop-color:rgb(253,176,75);stop-opacity:1"/><stop offset="0.61" style="stop-color:rgb(252,146,65);stop-opacity:1"/><stop offset="0.82" style="stop-color:rgb(253,159,66);stop-opacity:1"/><stop offset="1" style="stop-color:rgb(255,207,69);stop-opacity:1"/></linearGradient>
        <linearGradient id="_Linear26" x1="0" y1="0" x2="1" y2="0" gradientUnits="userSpaceOnUse" gradientTransform="matrix(48.081,5.88823e-15,5.88823e-15,-48.081,460.793,364.417)"><stop offset="0" style="stop-color:rgb(254,237,134);stop-opacity:1"/><stop offset="1" style="stop-color:rgb(250,251,174);stop-opacity:1"/></linearGradient>
        <radialGradient id="_Radial27" cx="0" cy="0" r="1" gradientUnits="userSpaceOnUse" gradientTransform="matrix(-2.99951e-15,48.9857,48.9857,2.99951e-15,389.456,561.078)"><stop offset="0" style="stop-color:rgb(252,115,43);stop-opacity:1"/><stop offset="1" style="stop-color:rgb(253,158,36);stop-opacity:1"/></radialGradient>
        <linearGradient id="_Linear28" x1="0" y1="0" x2="1" y2="0" gradientUnits="userSpaceOnUse" gradientTransform="matrix(-3.91033,17.5906,-38.2596,-8.50501,380.575,592.473)"><stop offset="0" style="stop-color:rgb(201,50,43);stop-opacity:1"/><stop offset="0.59" style="stop-color:rgb(209,66,46);stop-opacity:1"/><stop offset="0.81" style="stop-color:rgb(227,101,54);stop-opacity:1"/><stop offset="1" style="stop-color:rgb(245,136,62);stop-opacity:1"/></linearGradient>
        <linearGradient id="_Linear29" x1="0" y1="0" x2="1" y2="0" gradientUnits="userSpaceOnUse" gradientTransform="matrix(-20.2536,13.7466,-15.9129,-23.4453,425.845,650.326)"><stop offset="0" style="stop-color:rgb(171,0,31);stop-opacity:1"/><stop offset="0.43" style="stop-color:rgb(136,6,37);stop-opacity:1"/><stop offset="1" style="stop-color:rgb(57,19,49);stop-opacity:1"/></linearGradient>
        <linearGradient id="_Linear30" x1="0" y1="0" x2="1" y2="0" gradientUnits="userSpaceOnUse" gradientTransform="matrix(-38.7797,-37.8978,53.3725,-54.6146,451.83,618.343)"><stop offset="0" style="stop-color:rgb(159,4,35);stop-opacity:1"/><stop offset="1" style="stop-color:rgb(120,4,32);stop-opacity:1"/></linearGradient>
        <linearGradient id="_Linear31" x1="0" y1="0" x2="1" y2="0" gradientUnits="userSpaceOnUse" gradientTransform="matrix(-64.2491,-50.7114,68.2275,-86.4413,484.887,694.033)"><stop offset="0" style="stop-color:rgb(146,4,23);stop-opacity:1"/><stop offset="1" style="stop-color:rgb(103,5,29);stop-opacity:1"/></linearGradient>
        <radialGradient id="_Radial32" cx="0" cy="0" r="1" gradientUnits="userSpaceOnUse" gradientTransform="matrix(-78.2585,-262.868,876.271,-260.875,455.186,624.301)"><stop offset="0" style="stop-color:rgb(246,149,60);stop-opacity:1"/><stop offset="0.1" style="stop-color:rgb(230,100,52);stop-opacity:1"/><stop offset="0.21" style="stop-color:rgb(214,49,43);stop-opacity:1"/><stop offset="0.5" style="stop-color:rgb(207,26,39);stop-opacity:1"/><stop offset="1" style="stop-color:rgb(209,32,37);stop-opacity:1"/></radialGradient>
        <linearGradient id="_Linear33" x1="0" y1="0" x2="1" y2="0" gradientUnits="userSpaceOnUse" gradientTransform="matrix(59.4021,0,0,195.252,514.588,526.675)"><stop offset="0" style="stop-color:rgb(249,140,42);stop-opacity:1"/><stop offset="0.43" style="stop-color:rgb(246,106,31);stop-opacity:1"/><stop offset="1" style="stop-color:rgb(238,31,6);stop-opacity:1"/></linearGradient>
        <radialGradient id="_Radial34" cx="0" cy="0" r="1" gradientUnits="userSpaceOnUse" gradientTransform="matrix(33.6621,6.83229,-24.8236,122.304,477.279,439.786)"><stop offset="0" style="stop-color:rgb(252,136,19);stop-opacity:1"/><stop offset="0.46" style="stop-color:rgb(253,156,32);stop-opacity:1"/><stop offset="1" style="stop-color:rgb(255,206,66);stop-opacity:1"/></radialGradient>
        <linearGradient id="_Linear35" x1="0" y1="0" x2="1" y2="0" gradientUnits="userSpaceOnUse" gradientTransform="matrix(29.701,-2.86893,7.02339,72.7108,484.887,664.306)"><stop offset="0" style="stop-color:rgb(79,6,20);stop-opacity:1"/><stop offset="0.65" style="stop-color:rgb(83,6,19);stop-opacity:1"/><stop offset="1" style="stop-color:rgb(104,5,12);stop-opacity:1"/></linearGradient>
    </defs>
</svg>
